<svg id="Layer_1" data-name="Layer 1" xmlns="http://www.w3.org/2000/svg" viewBox="0 0 24 24" stroke-width="1.5" width="24" height="24" color="#000000"><defs><style>.cls-63ce7424ea57ea6c838005b1-1,.cls-63ce7424ea57ea6c838005b1-2,.cls-3{fill:none;stroke:currentColor;}.cls-63ce7424ea57ea6c838005b1-1{stroke-miterlimit:10;}.cls-63ce7424ea57ea6c838005b1-2,.cls-3{stroke-linecap:round;stroke-linejoin:round;}.cls-3{stroke-dasharray:0 4.13;}</style></defs><path class="cls-63ce7424ea57ea6c838005b1-1" d="M12,22.54a10.51,10.51,0,0,1-8.61-4.47"></path><polyline class="cls-63ce7424ea57ea6c838005b1-1" points="3.39 23.5 3.39 17.76 9.13 17.76"></polyline><line class="cls-63ce7424ea57ea6c838005b1-2" x1="1.48" y1="12.02" x2="1.48" y2="12.02"></line><path class="cls-3" d="M2.28,8A10.51,10.51,0,0,1,10,1.7"></path><line class="cls-63ce7424ea57ea6c838005b1-2" x1="12" y1="1.5" x2="12" y2="1.5"></line><line class="cls-63ce7424ea57ea6c838005b1-2" x1="12" y1="1.5" x2="12" y2="1.5"></line><path class="cls-3" d="M16,2.3A10.53,10.53,0,0,1,22.32,10"></path><line class="cls-63ce7424ea57ea6c838005b1-2" x1="22.52" y1="12.02" x2="22.52" y2="12.02"></line><line class="cls-63ce7424ea57ea6c838005b1-2" x1="22.52" y1="12.02" x2="22.52" y2="12.02"></line><path class="cls-3" d="M21.72,16.05a10.49,10.49,0,0,1-7.67,6.29"></path><line class="cls-63ce7424ea57ea6c838005b1-2" x1="12" y1="22.54" x2="12" y2="22.54"></line></svg>