<svg id="Layer_1" data-name="Layer 1" xmlns="http://www.w3.org/2000/svg" viewBox="0 0 24 24" stroke-width="1.5" width="24" height="24" color="#000000"><defs><style>.cls-637b83faf95e86b59c57a0f7-1{fill:currentColor;}.cls-637b83faf95e86b59c57a0f7-2{fill:none;stroke:currentColor;stroke-miterlimit:10;}</style></defs><polygon class="cls-637b83faf95e86b59c57a0f7-1" points="2.77 20.53 8.78 13.81 10.19 15.22 3.47 21.23 2.77 20.53 2.77 20.53"></polygon><path class="cls-637b83faf95e86b59c57a0f7-2" d="M13.73,18.76,5.24,10.27A5.94,5.94,0,0,1,9.48,8.52,5.42,5.42,0,0,1,11,8.73L14.5,5.26a1.49,1.49,0,0,1,2-2,1.32,1.32,0,0,1,.42.29l3.53,3.53a1.32,1.32,0,0,1,.29.42,1.49,1.49,0,0,1-2,2L15.27,13a5.42,5.42,0,0,1,.21,1.55A5.94,5.94,0,0,1,13.73,18.76Z"></path></svg>