<svg id="Layer_1" data-name="Layer 1" xmlns="http://www.w3.org/2000/svg" viewBox="0 0 24 24" stroke-width="1.5" width="24" height="24" color="#000000"><defs><style>.cls-63ce749bea57ea6c83800617-1{fill:none;stroke:currentColor;stroke-miterlimit:10;}</style></defs><path class="cls-63ce749bea57ea6c83800617-1" d="M14.87,20.63A2.88,2.88,0,0,0,12,17.76h0a2.88,2.88,0,0,0-2.87,2.87V23.5"></path><circle class="cls-63ce749bea57ea6c83800617-1" cx="12" cy="13.93" r="1.91"></circle><circle class="cls-63ce749bea57ea6c83800617-1" cx="19.65" cy="15.85" r="1.91"></circle><path class="cls-63ce749bea57ea6c83800617-1" d="M1.48,23.5v-1a2.87,2.87,0,0,1,2.87-2.87h0a2.88,2.88,0,0,1,2.87,2.87v1"></path><path class="cls-63ce749bea57ea6c83800617-1" d="M16.78,23.5v-1a2.88,2.88,0,0,1,2.87-2.87h0a2.87,2.87,0,0,1,2.87,2.87v1"></path><circle class="cls-63ce749bea57ea6c83800617-1" cx="4.35" cy="15.85" r="1.91"></circle><line class="cls-63ce749bea57ea6c83800617-1" x1="14.87" y1="20.63" x2="14.87" y2="23.5"></line><line class="cls-63ce749bea57ea6c83800617-1" x1="8.17" y1="9.15" x2="15.83" y2="1.5"></line><line class="cls-63ce749bea57ea6c83800617-1" x1="15.83" y1="9.15" x2="8.17" y2="1.5"></line></svg>