<svg id="Layer_1" data-name="Layer 1" xmlns="http://www.w3.org/2000/svg" viewBox="0 0 24 24" stroke-width="1.5" width="24" height="24" color="#000000"><defs><style>.cls-637b8a2bf95e86b59c57a22b-1{fill:none;stroke:currentColor;stroke-miterlimit:10;}</style></defs><path class="cls-637b8a2bf95e86b59c57a22b-1" d="M2.2,3.94H5.13a2,2,0,0,1,2,1.95h0a2,2,0,0,1-1.95,2H3.18"></path><path class="cls-637b8a2bf95e86b59c57a22b-1" d="M2.2,11.76H5.13a2,2,0,0,0,2-2h0a2,2,0,0,0-1.95-2H3.18"></path><circle class="cls-637b8a2bf95e86b59c57a22b-1" cx="11.97" cy="9.8" r="1.95"></circle><path class="cls-637b8a2bf95e86b59c57a22b-1" d="M10,9.8v-2a3.91,3.91,0,0,1,3.9-3.91h0"></path><rect class="cls-637b8a2bf95e86b59c57a22b-1" x="16.86" y="3.94" width="3.91" height="7.82" rx="1.95"></rect><line class="cls-637b8a2bf95e86b59c57a22b-1" x1="22.72" y1="1.01" x2="22.72" y2="2.96"></line><path class="cls-637b8a2bf95e86b59c57a22b-1" d="M1.22,14.69c0,1.92,2,5.86,8.85,5.8"></path><polyline class="cls-637b8a2bf95e86b59c57a22b-1" points="7.57 17.99 10.07 20.49 7.57 22.99"></polyline><path class="cls-637b8a2bf95e86b59c57a22b-1" d="M13.93,20.49c6.89.06,8.85-3.88,8.85-5.8"></path><polyline class="cls-637b8a2bf95e86b59c57a22b-1" points="16.43 17.99 13.93 20.49 16.43 22.99"></polyline></svg>